<svg id="Capa_1" enable-background="new 0 0 512 512" height="512" viewBox="0 0 512 512" width="512" xmlns="http://www.w3.org/2000/svg"><g><g fill="#ff8de4"><path d="m32 64h32v32h-32z"/><path d="m96 64h32v32h-32z"/><path d="m160 64h32v32h-32z"/><path d="m512 128v352h-512v-352l256-32z"/></g><path d="m224 32-32 96 320-32v-64z" fill="#ff4db3"/><path d="m224 96v-64h-224v96h512v-32zm-160 0h-32v-32h32zm64 0h-32v-32h32zm64 0h-32v-32h32z" fill="#ff0068"/><path d="m332.48 384-60.48-192h-32l-60.48 192h-35.52v32h224v-32z" fill="#ff4db3"/></g></svg>